<?xml version="1.0" encoding="utf-8" ?><svg xmlns="http://www.w3.org/2000/svg" xmlns:xlink="http://www.w3.org/1999/xlink" width="1024" height="1024" viewBox="0 0 1024 1024"><path fill="#F3F3F1" d="M0 0L1024 0L1024 1024L0 1024L0 0Z"/><path fill="#1A3143" d="M299.784 140.18C306.669 139.487 314.007 139.95 320.944 139.953L360.452 139.98L487.305 139.979L626.214 139.971L669.977 139.943C678.228 139.94 686.759 139.524 694.971 140.299C702.341 140.994 709.346 144.259 715.189 148.702C723.587 155.087 729.749 165.069 731.151 175.581C732.013 182.049 731.603 188.865 731.582 195.378L731.526 226.772L731.556 338.653L731.572 478.535L731.589 522.221C731.589 529.833 732.092 537.801 731.365 545.357C730.647 552.827 727.495 560.1 722.942 566.026C715.835 575.274 706.051 580.6 694.577 582.151C685.616 582.751 676.48 582.42 667.494 582.419L621.516 582.412L477.75 582.399L359.384 582.398L322.199 582.427C314.766 582.433 307.158 582.768 299.753 582.105C291.856 581.398 284.709 578.581 278.439 573.7C269.817 566.989 263.746 556.994 262.452 546.089C261.576 538.71 261.929 531.091 261.944 523.673L261.979 488.713L261.963 369.107L261.957 238.758L261.957 198.107C261.959 190.914 261.524 183.327 262.253 176.172C263 168.851 266.274 161.605 270.824 155.877C278.101 146.716 288.277 141.559 299.784 140.18Z"/><path fill="#F3F3F1" d="M525.922 164.025L527.079 164.014L638.764 164.012L673.987 163.959C680.308 163.951 686.999 163.499 693.258 164.292C696.608 164.717 700.029 166.076 702.39 168.563C704.544 170.831 706.293 174.327 706.765 177.425C707.633 183.127 707.233 189.339 707.223 195.1L707.167 224.622L707.206 327.161L657.42 327.1C647.308 327.1 637.127 326.858 627.026 327.31C626.483 334.295 626.773 341.481 627 348.482C653.688 349.073 680.508 348.539 707.209 348.553L707.179 483.489L707.258 521.021C707.279 528.011 707.776 535.461 706.879 542.391C706.331 546.627 704.872 550.376 701.772 553.405C699.289 555.831 696.965 557.093 693.589 557.75C683.675 559.678 671.052 558.54 660.848 558.54L598.75 558.513L500.076 558.52L500.141 348.504L551.555 348.487C551.861 341.442 551.714 334.373 551.617 327.325C543.201 326.598 534.399 327.092 525.938 327.082L525.952 248.482L591.031 248.506C590.948 265.522 590.98 282.539 591.127 299.554C598.063 299.981 605.136 299.669 612.079 299.504C612.23 298.035 612.309 296.586 612.322 295.111L612.39 255.609C612.395 248.517 612.91 240.974 612.217 233.946C612.068 232.43 612.085 231.383 610.891 230.33C608.587 228.297 604.098 227.615 601.105 227.291C592.671 226.378 583.751 226.968 575.244 226.969L525.939 227.003L525.922 164.025Z"/><path fill="#1A3143" d="M580.934 391.702C584.582 391.341 588.343 391.516 592.01 391.527L591.994 410.392C588.92 410.545 583.87 410.19 581.177 411.773C575.666 415.012 578.713 434.206 577.729 440.54C576.692 447.221 573.679 451.128 568.367 454.965C571.074 457.221 573.498 459.344 575.279 462.456C581 472.455 574.96 493.834 579.735 498.831C582.841 502.082 587.943 501.452 592.006 501.443L592.013 519.417C587.969 519.527 583.923 519.435 579.879 519.374C544.688 515.928 566.173 474.9 556.493 466.459C553.764 464.078 547.537 464.94 544.026 464.978C543.891 458.232 543.884 451.484 544.006 444.738C546.592 444.724 549.276 444.812 551.844 444.522C566.079 442.914 552.991 411.879 563.457 399.183C567.917 393.772 574.328 392.382 580.934 391.702Z"/><path fill="#1A3143" d="M623.708 391.016C631.4 390.341 640.726 390.711 647.407 395.027C661.746 404.292 653.326 426.054 656.477 439.827C658.245 447.553 666.791 442.425 671.32 445.274C673.244 449.436 672.045 459.827 671.959 464.621C668.214 465.18 662.371 463.852 659.165 465.83C657.768 466.692 656.894 468.415 656.519 469.959C654.271 479.217 657.669 493.007 655.427 503.226C654.081 509.362 650.84 513.225 645.687 516.532C638.3 519.781 631.674 519.584 623.795 519.458C623.342 513.561 623.505 507.424 623.755 501.519C626.861 501.472 632.381 501.959 635.002 500.082C638.707 497.429 636.788 477.507 637.243 472.255C637.902 464.657 640.935 460.013 646.619 455.208C628.788 441.567 642.34 420.104 635.35 411.945C632.988 409.189 627.102 409.485 623.694 409.173C623.325 403.199 623.452 396.995 623.708 391.016Z"/><path fill="#F3F3F1" d="M299.793 164.171C323.187 163.146 346.941 163.999 370.375 164L504.984 164.006C505.29 184.089 505.032 204.219 505.035 224.307L504.983 327.123C490.24 327.09 475.254 326.499 460.547 327.323C460.432 334.354 460.546 341.401 460.568 348.434C467.065 348.699 473.639 348.527 480.146 348.549L480.12 558.533L411.694 558.52C411.874 541.684 412.107 524.7 411.599 507.874C404.825 507.392 397.872 507.47 391.101 507.951C390.495 524.755 390.956 541.698 390.987 558.517L331.789 558.524C321.946 558.531 309.901 559.644 300.304 557.889C296.995 557.283 293.743 555.86 291.282 553.528C288.346 550.744 287.035 546.967 286.445 543.052C285.002 533.462 286.093 521.01 286.095 511.16L286.089 443.25L286.085 434.061C321.013 433.631 356.01 434.006 390.942 434.089C390.869 444.363 390.905 454.637 391.05 464.91C397.88 465.041 404.712 465.046 411.543 464.924C411.99 456.697 411.771 448.376 411.769 440.136C411.767 431.151 411.954 422.113 411.518 413.139C397.088 412.407 382.337 412.97 367.879 412.975L286.114 413.008L286.103 348.523C299.478 348.528 383.983 349.837 389.683 347.341C390.919 340.274 390.026 331.637 390.022 324.431L389.986 274.887C391.831 276.38 393.745 278.07 395.887 279.11C398.336 280.299 400.946 280.425 403.505 279.499C405.402 278.812 406.769 277.46 407.565 275.612C408.28 273.952 408.548 271.666 407.723 269.994C406.278 267.066 383.587 243.069 381.066 242.138C379.287 242.137 378.39 242.226 376.909 243.359C373.62 245.877 370.993 249.416 368.037 252.327C363.323 256.972 357.611 261.46 353.603 266.697C352.312 268.383 351.209 270.293 350.969 272.439C350.786 274.079 351.245 275.66 352.299 276.936C353.76 278.706 356.49 280.17 358.796 280.299C363.181 280.544 366.621 277.02 369.587 274.285L369.651 327.093L286.076 327.11L286.052 228.683L286.052 198.09C286.054 191.801 285.789 185.369 286.371 179.107C286.657 176.029 287.253 173.339 288.968 170.713C291.512 166.819 295.395 165.091 299.793 164.171Z"/><path fill="#1A3143" d="M318.025 197.051C359.359 197.038 400.904 196.228 442.216 197.162C443.232 208.903 442.413 221.415 442.412 233.225L442.39 303.545C435.437 303.638 428.438 303.884 421.494 303.501L421.477 286.75L421.458 218.425L338.871 218.439C338.905 230.896 339.155 243.405 338.76 255.854C331.897 256.17 324.982 256.015 318.114 255.918C317.372 236.392 317.885 216.598 318.025 197.051Z"/><path fill="#1A3143" d="M638.155 624.696C639.013 624.605 639.874 624.529 640.735 624.469C659.937 623.127 679.196 627.756 693.908 640.611C708.974 653.776 716.05 672.504 717.205 692.136C718.549 714.984 711.821 733.983 696.747 750.994C704.492 761.772 712.979 772.104 720.895 782.779C710.85 782.737 700.805 782.753 690.761 782.827C688.526 779.366 686.115 776.002 683.785 772.604L678.423 764.453C671.612 767.215 665.021 769.358 657.713 770.33C637.741 772.985 617.439 768.803 601.378 756.309C586.43 744.682 578.399 728.294 576.217 709.682C573.732 688.497 577.013 666.359 590.64 649.314C602.478 634.506 619.584 626.724 638.155 624.696Z"/><path fill="#F3F3F1" d="M643.26 648.186C651.846 647.311 661.223 649.778 668.464 654.399C678.475 660.786 684.639 671.6 687.044 683.04C690.443 699.2 688.15 716.155 679.147 730.079L665.332 711.43L639.846 711.419L651.603 727.757C655.196 732.81 658.754 737.888 662.279 742.99C658.405 744.547 654.803 745.758 650.643 746.338C640.302 747.78 629.809 745.803 621.39 739.42C611.312 731.78 606.209 719.69 604.655 707.422C602.761 692.471 605.214 675.186 614.786 663.077C622.099 653.826 631.74 649.501 643.26 648.186Z"/><path fill="#1A3143" d="M164.629 626.984L198.453 626.937C217.685 626.927 240.607 625.06 256.556 637.915C265.568 645.179 270.677 656.043 271.832 667.444C273.114 680.095 270.23 692.747 262.03 702.672C252.165 714.612 238.286 718.952 223.381 720.421C213.249 720.614 203.115 720.695 192.981 720.663L193.025 768.593L164.988 768.612L164.975 678.509C164.972 661.36 165.34 644.118 164.629 626.984Z"/><path fill="#F3F3F1" d="M193.007 650.544C205.607 650.479 227.43 647.875 237.392 656.794C241.424 660.405 243.214 665.395 243.485 670.707C243.87 678.26 241.501 684.431 236.431 689.986C226.474 699.229 205.831 696.76 192.987 696.728L193.007 650.544Z"/><path fill="#1A3143" d="M774.31 626.934L804.121 626.968L837.014 714.345C843.869 732.365 851.278 750.368 857.432 768.628L827.428 768.651C823.669 757.933 819.84 747.24 815.942 736.572L805.75 736.624L762.359 736.549C758.261 747.1 754.702 757.935 750.936 768.612L722.286 768.649L774.31 626.934Z"/><path fill="#F3F3F1" d="M788.802 656.364C791.395 658.98 806.391 705.638 809.056 713.587L790.75 713.579L769.626 713.597L788.802 656.364Z"/><path fill="#1A3143" d="M379.524 661.206L380.504 661.153C393.646 660.469 409.685 662.353 419.813 671.666C424.784 676.237 427.889 682.398 429.446 688.911C432.484 701.624 431 716.535 431.003 729.579C430.999 742.574 431.308 755.568 431.93 768.548L407.119 768.604C406.965 764.57 406.637 760.532 406.377 756.503C403.112 759.884 399.532 762.896 395.448 765.245C385.156 771.165 371.057 772.66 359.663 769.448C349.547 766.596 343.036 760.432 337.964 751.448C336.234 747.72 335.177 743.715 334.84 739.618C334.25 732.389 335.854 725.377 340.748 719.814C351 708.161 369.06 707.736 383.387 706.732C390.896 706.184 398.41 705.712 405.929 705.317C405.704 700.673 405.696 695.662 403.916 691.296C402.246 687.198 399.446 684.207 395.267 682.642C388.995 680.293 379.534 680.695 373.538 683.668C367.872 686.478 365.638 690.834 363.629 696.489C355.4 696.027 347.172 695.875 338.956 695.161C340.354 687.843 342.473 681.18 347.271 675.331C355.369 665.458 367.342 662.416 379.524 661.206Z"/><path fill="#F3F3F1" d="M401.284 722.207C402.305 722.084 403.327 721.877 404.332 722.186C404.889 722.357 404.856 722.4 405.138 722.971C406.798 726.329 405.757 731.088 404.597 734.487C402.653 740.18 398.519 744.546 393.125 747.144C385.758 750.692 376.331 751.013 368.658 748.34C367.821 747.855 367.017 747.316 366.25 746.725C363.755 744.809 362.24 741.877 361.951 738.759C361.635 735.347 362.276 731.972 364.562 729.327C370.898 721.993 391.894 722.773 401.284 722.207Z"/><path fill="#1A3143" d="M510.087 661.199C510.603 661.158 511.12 661.113 511.638 661.092C522.557 660.65 534.653 662.829 542.885 670.55C557.815 684.553 554.51 711.587 554.494 730.228C554.38 743.015 554.549 755.804 555 768.583L527.357 768.625L527.307 725.959C527.3 718.505 527.811 710.697 527.008 703.298C526.652 700.01 525.888 696.767 524.356 693.815C522.098 689.463 518.441 686.297 513.727 684.875C506.167 682.595 499.177 684.08 492.328 687.647C491.317 688.463 490.265 689.287 489.335 690.198C486.881 692.599 484.813 695.459 483.951 698.821C481.715 707.533 482.951 718.485 482.957 727.427L483.015 768.562L455.227 768.597C455.878 754.124 455.61 739.519 455.684 725.028C455.791 704.301 456.039 683.584 455.219 662.867L480.941 662.9C481.122 667.357 481.367 671.81 481.676 676.26C489.757 666.923 497.711 662.419 510.087 661.199Z"/><path fill="#1A3143" d="M288.36 623.019L315.912 623.029C315.161 671.537 315.195 720.054 316.015 768.56L288.633 768.585C289.307 720.064 289.216 671.537 288.36 623.019Z"/><path fill="#1A3143" d="M205.542 816.028C215.813 815.924 229.291 814.403 237.824 821.164C242.753 825.07 245.123 830.935 245.762 837.057C246.648 845.545 245.068 852.985 239.606 859.741C230.207 868.1 217.213 866.151 205.515 866.098L205.542 816.028Z"/><path fill="#F3F3F1" d="M213.073 822.94C218.841 822.888 226.536 822.017 231.579 825.196C235.365 827.582 237.245 831.75 237.994 836.024C239.194 842.871 238.086 849.601 234.029 855.297C228.079 860.523 220.403 859.564 213.047 859.481L213.073 822.94Z"/><path fill="#1A3143" d="M500.937 816.35C506.336 816.294 511.755 816.175 517.153 816.255C522.824 816.339 529.697 816.739 533.788 821.205C536.141 823.775 537.092 827.548 536.826 830.973C536.48 835.447 533.855 838.019 530.635 840.724C533.066 842.089 535.38 843.657 536.796 846.13C539.04 850.048 538.364 854.328 537.23 858.478C536.572 859.648 535.676 860.778 534.703 861.702C527.706 868.342 510.096 866.145 500.955 866.112C500.758 849.532 500.929 832.932 500.937 816.35Z"/><path fill="#F3F3F1" d="M508.476 844.103C514.557 844.029 523.038 842.978 528.271 846.577C529.701 847.559 530.669 848.794 530.902 850.552C531.231 853.038 529.873 856.056 528.417 857.989C522.87 861.274 514.666 860.136 508.43 860.026L508.476 844.103Z"/><path fill="#F3F3F1" d="M508.454 822.924C513.68 822.857 521.017 821.969 525.764 824.225C527.406 825.005 528.764 826.221 529.223 828.052C529.906 830.782 528.743 833.675 527.442 836.019C522.122 839.4 514.5 838.322 508.429 838.221L508.454 822.924Z"/><path fill="#1A3143" d="M393.372 829.687C397.007 829.811 400.225 830.463 403.314 832.463C407.345 835.072 409.819 839.311 410.684 843.981C411.71 849.516 410.861 855.694 407.425 860.274C404.082 864.729 399.807 866.175 394.565 867.037C390.467 866.845 386.622 865.887 383.317 863.355C379.398 860.353 377.262 855.693 376.728 850.86C376.143 845.557 377.328 839.838 380.772 835.658C384.131 831.581 388.322 830.217 393.372 829.687Z"/><path fill="#F3F3F1" d="M392.126 835.567C393.633 835.591 395.228 835.557 396.683 835.999C399.298 836.791 401.405 838.849 402.622 841.254C404.512 844.99 404.61 849.964 403.152 853.855C401.722 857.673 399.608 859.314 395.964 860.894C394.018 861.021 392.087 860.994 390.26 860.217C387.532 859.057 385.557 856.573 384.575 853.827C383.155 849.857 383.354 844.996 385.215 841.204C386.771 838.034 388.889 836.709 392.126 835.567Z"/><path fill="#1A3143" d="M741.807 829.683C745.537 829.857 748.696 830.25 751.389 833.096C756.997 839.026 754.886 857.976 754.779 866.16L748.008 866.125C747.93 859.755 749.831 841.914 745.589 837.607C744.358 836.356 742.69 835.832 740.963 835.814C738.662 835.789 736.365 836.548 734.766 838.25C730.179 843.134 731.961 859.439 732.033 866.112L725.09 866.119L725.09 847.623C725.107 844.334 725.408 840.994 723.217 838.292C721.978 836.765 720.341 835.809 718.369 835.629C716.091 835.421 713.915 836.333 712.28 837.894C707.1 842.838 708.97 859.287 709.045 866.141L702.481 866.081C702.516 854.065 702.485 842.049 702.388 830.034L706.42 830.057C707.849 830.93 708.227 831.366 708.822 832.973C708.883 833.139 708.936 833.308 708.993 833.476C713.141 833.132 715.712 829.208 720.521 829.426C724.736 829.617 728.065 832.127 730.706 835.18C734.255 831.756 736.886 830.319 741.807 829.683Z"/><path fill="#1A3143" d="M777.84 829.693C779.206 829.774 780.569 829.892 781.929 830.046C785.017 830.421 789.074 832.195 790.724 835.005C792.886 838.689 793.532 861.874 792.074 865.875C791.052 866.16 789.443 866.376 788.407 865.966C787.023 865.416 787.039 864.637 786.589 863.337C785.959 862.994 777.739 866.639 775.854 866.875C772.611 867.28 768.627 867.182 765.971 865.002C763.185 862.717 762.228 859.15 761.874 855.741C762.305 853.498 762.648 851.506 764.25 849.781C769.011 844.654 779.587 845.324 786.093 844.927C785.95 843.325 785.868 841.589 785.406 840.042C784.819 838.079 783.116 836.424 781.294 835.561C779.502 834.713 777.462 834.669 775.61 835.354C772.199 836.614 770.971 838.93 769.571 842.1C767.241 841.935 764.914 841.673 762.589 841.446C763.446 839.044 764.215 836.594 765.876 834.605C769.088 830.756 773.132 830.104 777.84 829.693Z"/><path fill="#F3F3F1" d="M780.365 850.21C782.144 849.92 784.141 850.009 785.953 849.931C785.894 852.756 785.906 855.399 784.146 857.773C782.229 860.359 779.224 860.876 776.224 861.205C774.74 861.094 773.272 860.852 771.927 860.185C770.666 859.561 769.152 858.609 768.871 857.107C768.658 855.964 769.288 854.727 769.999 853.873C772.816 850.486 776.331 850.472 780.365 850.21Z"/><path fill="#1A3143" d="M317.59 830.128C322.591 829.776 328.226 829.155 332.539 832.294C335.146 834.191 335.857 836.046 336.417 839.125C337.054 842.625 338.021 863.512 336.4 865.833C334.897 866.087 333.712 866.189 332.193 866.075C331.205 865.113 331.221 864.437 330.908 863.115C326.702 863.154 321.939 869.504 313.777 866.593C310.433 865.4 308.492 862.88 307.066 859.764C306.393 856.709 306.326 853.192 308.144 850.505C312.644 843.851 322.422 846.673 328.937 845.085C330.021 844.82 330.091 844.498 330.678 843.612C330.825 842.456 330.735 841.619 330.301 840.547C329.398 838.335 327.66 836.568 325.464 835.628C323.595 834.845 321.5 834.772 319.621 835.566C316.567 836.857 315.499 839.202 314.212 842.055C311.851 841.976 309.483 841.648 307.134 841.4C307.517 840.245 307.898 839.08 308.37 837.959C310.224 833.561 313.289 831.737 317.59 830.128Z"/><path fill="#F3F3F1" d="M324.741 850.199C325.828 850.084 327.289 849.78 328.357 849.931C329.632 850.112 329.868 850.754 330.493 851.724C330.821 854.15 330.152 855.628 328.642 857.544C326.444 860.334 324.109 860.892 320.7 861.208C319.007 861.062 317.579 860.822 316.066 860.002C314.515 859.162 313.995 858.348 313.444 856.71C313.671 855.439 313.919 854.621 314.8 853.645C317.629 850.512 320.826 850.507 324.741 850.199Z"/><path fill="#1A3143" d="M556.604 830.114C557.66 829.996 558.718 829.908 559.778 829.85C564.242 829.61 568.684 830.705 572.008 833.839C576.408 837.989 577.061 843.547 577.317 849.243L550.626 849.318C551.185 851.949 551.592 854.503 553.218 856.725C554.957 859.101 557.382 860.89 560.37 861.219C563.985 861.617 566.956 860.208 569.731 858.049L570.562 857.215C572.641 857.209 574.518 858.266 576.394 859.08C574.38 861.796 572.167 863.914 569.092 865.397C564.779 867.458 559.81 867.661 555.343 865.958C550.772 864.183 547.327 860.558 545.498 856.041C543.407 850.878 543.362 844.298 545.749 839.222C548.022 834.387 551.776 831.911 556.604 830.114Z"/><path fill="#F3F3F1" d="M559.742 835.061C561.46 835.215 563.244 835.318 564.834 836.045C568.206 837.587 569.327 840.742 570.586 843.946L562.25 843.994L551.148 843.965C551.59 842.902 552.014 841.828 552.51 840.788C554.102 837.45 556.357 836.221 559.742 835.061Z"/><path fill="#1A3143" d="M177.034 815.578C181.922 815.34 187.33 815.727 191.115 819.234C193.88 821.796 195.313 826.112 195.366 829.808C195.537 841.624 182.234 852.097 174.669 859.998L195.958 860.021L195.912 866.114L171.485 866.088C169.192 866.141 166.933 866.319 164.689 865.768L164.194 864.669C165.344 856.31 183.051 844.547 187.381 834.652C188.443 832.223 188.432 828.881 187.403 826.437C186.535 824.374 184.93 822.878 182.83 822.11C180.549 821.276 178.048 821.486 175.867 822.507C172.462 824.102 171.687 826.827 170.608 830.134C168.218 829.879 165.83 829.495 163.449 829.167C164.189 826.755 164.915 824.316 166.269 822.161C168.877 818.011 172.502 816.66 177.034 815.578Z"/><path fill="#1A3143" d="M662.52 815.585L669.081 815.603L669.102 834.497C672.544 831.728 675.616 829.858 680.154 829.768C683.277 829.707 686.413 830.244 688.688 832.551C694.743 838.694 692.626 857.576 692.536 866.076L685.749 866.105L685.748 846.57C685.703 845.018 685.692 843.4 685.458 841.865C685.148 839.834 683.807 838.003 682.12 836.865C680.521 835.787 678.577 835.478 676.707 835.918C673.343 836.708 671.382 838.935 669.599 841.73C668.806 849.747 669.216 858.041 669.249 866.096L662.518 866.099L662.52 815.585Z"/><path fill="#1A3143" d="M827.179 815.523L834.033 815.537L834.104 846.273C839.253 841.025 844.955 833.958 851.122 829.982L858.783 830.044C853.562 835.143 848.31 840.21 843.028 845.245C846.217 849.519 849.666 853.646 852.979 857.827C855.165 860.676 857.489 863.417 859.785 866.177L850.972 866.06C846.552 860.748 842.423 855.137 838.171 849.686C836.796 850.959 835.5 852.33 834.178 853.658C833.955 857.783 834.11 861.986 834.103 866.119L827.261 866.167C826.982 849.299 827.193 832.395 827.179 815.523Z"/><path fill="#1A3143" d="M340.732 830.069L347.551 830.028C351.542 839.378 354.934 848.998 358.428 858.542L367.788 830.045L374.871 830.098L366.073 855.64C363.342 862.18 362.191 872.304 356.868 877.116C353.022 880.592 348.263 880.163 343.471 880.04C343.44 878.379 343.356 876.894 343.884 875.291C345.424 873.615 348.535 874.096 350.6 873.327C353.393 872.287 354.271 869.476 355.339 866.979C350.377 854.869 344.572 842.572 340.732 830.069Z"/><path fill="#1A3143" d="M441.908 830.042L448.494 830.014L448.475 839.25C448.516 846.964 448.809 854.785 448.521 862.487C448.456 864.249 448.367 865.146 447.067 866.36C446.263 866.514 445.75 866.584 444.958 866.253C443.7 865.727 443.002 864.826 442.635 863.541C442.344 862.524 442.745 862.963 441.975 862.438C438.827 865.041 435.687 866.817 431.504 867.011C428.1 867.169 424.331 866.537 421.779 864.105C420.237 862.636 419.271 860.661 418.784 858.608C417.254 852.161 418.395 837.366 418.398 830.029L425.026 830.012C425.081 836.65 423.231 854.458 427.389 859.013C428.535 860.269 430.161 860.924 431.847 860.967C434.384 861.033 437.114 860.143 438.925 858.326C443.799 853.435 441.975 836.971 441.908 830.042Z"/><path fill="#1A3143" d="M602.43 829.658C605.747 829.822 608.712 830.165 611.195 832.595C617.18 838.452 615.054 857.869 615.038 866.08L608.366 866.14C608.307 859.257 609.836 844.93 606.894 839.226C606.055 837.599 604.745 836.355 602.914 835.924C600.278 835.303 597.348 836.487 595.046 837.658C593.63 839.005 592.675 840.518 591.62 842.154C591.273 850.102 591.521 858.152 591.516 866.112L584.917 866.1C585.033 854.086 584.939 842.07 584.635 830.059C586.324 830.02 589.145 829.57 590.584 830.469L591.266 833.597C591.49 833.701 591.692 833.891 591.939 833.909C592.641 833.96 596.81 830.98 597.882 830.526C599.099 830.012 600.472 829.884 601.773 829.73L602.43 829.658Z"/><path fill="#1A3143" d="M271.513 815.999L279.032 815.973L279.018 859.308L301.839 859.285L301.886 866.106L271.529 866.095L271.513 815.999Z"/><path fill="#1A3143" d="M634.53 830.116C638.326 829.724 642.145 829.48 645.781 830.887C650.858 832.853 653.132 837.06 655.143 841.771C652.848 842.197 650.559 842.399 648.237 842.6C646.771 839.927 645.102 837.045 641.986 836.123C639.489 835.386 636.301 835.852 634.116 837.259C631.546 838.913 630.213 841.781 629.701 844.71C628.977 848.852 629.609 853.67 632.134 857.128C633.539 859.053 635.52 860.542 637.921 860.884C641.085 861.334 643.445 860.107 645.855 858.216C646.886 856.846 647.575 855.222 648.326 853.684C650.637 853.903 652.911 854.328 655.197 854.725C653.625 859.37 651.056 863.554 646.457 865.723C642.494 867.592 637.717 867.515 633.663 865.971C629.079 864.225 625.645 860.515 623.838 856.003C621.819 850.961 621.731 844.336 623.962 839.346C626.093 834.582 629.863 831.998 634.53 830.116Z"/><path fill="#1A3143" d="M460.062 821.087L466.947 821.046L466.95 829.996C469.526 830.034 474.333 829.012 476.542 830.241C477.529 830.79 478.104 831.607 478.166 832.753C478.242 834.133 477.721 834.616 476.887 835.568C474.097 836.787 469.964 836.1 466.91 836.061C467.013 841.076 465.63 856.464 468.195 859.73C470.102 862.159 474.94 860.441 477.627 860.719L478.408 861.959C478.292 863.279 478.262 864.53 477.684 865.747C475.799 866.872 472.287 867.233 470.08 867.173C467.45 867.102 464.873 866.278 463.058 864.294C457.981 858.746 459.992 843.435 460.082 836.026C458.527 836.07 456.248 836.38 454.763 835.841C453.473 835.373 452.886 834.5 452.257 833.36C452.362 832.229 452.741 831.494 453.641 830.769C455.256 829.468 458.081 829.919 460.042 829.977L460.062 821.087Z"/><path fill="#1A3143" d="M801.857 830.06C803.57 829.977 805.427 829.658 806.97 830.533C808.026 831.748 808.38 832.601 808.787 834.161C808.831 834.329 808.871 834.499 808.914 834.668C810.576 833.083 812.225 831.604 814.389 830.744C816.238 830.008 819.122 829.361 820.941 830.21C821.518 831.322 821.846 832.632 821.565 833.894C820.701 837.771 814.092 836.406 811.36 838.891C809.313 840.753 808.973 844.128 808.957 846.691C808.955 846.919 808.959 847.147 808.96 847.375L809.008 866.063L802.028 866.144C802.076 854.116 802.019 842.087 801.857 830.06Z"/></svg>